<svg width="14" height="16" viewBox="0 0 14 16" fill="none" xmlns="http://www.w3.org/2000/svg">
<g clip-path="url(#clip0_2_1126)">
<path d="M12.6388 8.86673C12.7995 8.67575 12.6388 8.11499 12.6388 7.86673C12.6388 7.61846 12.7995 8.0577 12.6388 7.86673L7.63881 2.86673C7.46024 2.69485 7.87095 2.86673 7.63881 2.86673C7.40667 2.86673 6.81738 2.69485 6.63881 2.86673C6.4781 3.0577 6.63881 3.61846 6.63881 3.86673C6.63881 4.11499 6.4781 4.67575 6.63881 4.86673L9.63881 7.86673H1.63881C1.38881 7.86673 0.799526 7.69485 0.638811 7.86673C0.478097 8.0386 0.638811 7.59937 0.638811 7.86673C0.638811 8.13409 0.478097 8.69485 0.638811 8.86673C0.799526 9.0386 1.38881 8.86673 1.63881 8.86673H9.63881L6.63881 11.8667C6.4781 12.0577 6.63881 12.6185 6.63881 12.8667C6.63881 13.115 6.4781 13.6758 6.63881 13.8667C6.81738 14.0386 7.40667 13.8667 7.63881 13.8667C7.46024 14.0386 7.87095 13.8667 7.63881 13.8667L12.6388 8.86673Z" fill="white"/>
</g>
<defs>
<clipPath id="clip0_2_1126">
<rect width="13" height="15" fill="white" transform="matrix(1 0 0 -1 0.638916 15.8667)"/>
</clipPath>
</defs>
</svg>
