<svg width="40" height="41" viewBox="0 0 40 41" fill="none" xmlns="http://www.w3.org/2000/svg">
<rect y="0.100098" width="40" height="40" rx="20" fill="#F82BA9"/>
<rect width="32" height="32" transform="translate(4 4.1001)" fill="#F82BA9"/>
<path d="M16.0001 10.0468C17.2935 9.63583 18.643 9.42891 20.0001 9.43342C25.5761 9.43342 29.3707 12.7668 31.6334 15.7054C32.7667 17.1801 33.3334 17.9148 33.3334 20.1001C33.3334 22.2868 32.7667 23.0214 31.6334 24.4948C29.3707 27.4334 25.5761 30.7668 20.0001 30.7668C14.4241 30.7668 10.6294 27.4334 8.36675 24.4948C7.23341 23.0228 6.66675 22.2854 6.66675 20.1001C6.66675 17.9134 7.23341 17.1788 8.36675 15.7054C9.05808 14.8025 9.82774 13.9624 10.6667 13.1948" stroke="white" stroke-width="2" stroke-linecap="round"/>
<path d="M24 20.1001C24 21.161 23.5786 22.1784 22.8284 22.9285C22.0783 23.6787 21.0609 24.1001 20 24.1001C18.9391 24.1001 17.9217 23.6787 17.1716 22.9285C16.4214 22.1784 16 21.161 16 20.1001C16 19.0392 16.4214 18.0218 17.1716 17.2717C17.9217 16.5215 18.9391 16.1001 20 16.1001C21.0609 16.1001 22.0783 16.5215 22.8284 17.2717C23.5786 18.0218 24 19.0392 24 20.1001Z" stroke="white" stroke-width="2"/>
</svg>
