<svg width="32" height="33" viewBox="0 0 32 33" fill="none" xmlns="http://www.w3.org/2000/svg">
<rect width="32" height="32" transform="translate(0 0.100098)" fill="#F82BA9"/>
<path d="M12.0001 6.04676C13.2935 5.63583 14.643 5.42891 16.0001 5.43342C21.5761 5.43342 25.3707 8.76676 27.6334 11.7054C28.7667 13.1801 29.3334 13.9148 29.3334 16.1001C29.3334 18.2868 28.7667 19.0214 27.6334 20.4948C25.3707 23.4334 21.5761 26.7668 16.0001 26.7668C10.4241 26.7668 6.62941 23.4334 4.36675 20.4948C3.23341 19.0228 2.66675 18.2854 2.66675 16.1001C2.66675 13.9134 3.23341 13.1788 4.36675 11.7054C5.05808 10.8025 5.82774 9.96237 6.66675 9.19476" stroke="white" stroke-width="2" stroke-linecap="round"/>
<path d="M20 16.1001C20 17.161 19.5786 18.1784 18.8284 18.9285C18.0783 19.6787 17.0609 20.1001 16 20.1001C14.9391 20.1001 13.9217 19.6787 13.1716 18.9285C12.4214 18.1784 12 17.161 12 16.1001C12 15.0392 12.4214 14.0218 13.1716 13.2717C13.9217 12.5215 14.9391 12.1001 16 12.1001C17.0609 12.1001 18.0783 12.5215 18.8284 13.2717C19.5786 14.0218 20 15.0392 20 16.1001Z" stroke="white" stroke-width="2"/>
</svg>
