<svg width="14" height="20" viewBox="0 0 14 20" fill="none" xmlns="http://www.w3.org/2000/svg">
<path d="M12.3789 5.83392C12.707 5.43549 12.707 5.03705 12.3789 4.63861C11.9805 4.31049 11.582 4.31049 11.1836 4.63861L7 8.8222L2.81641 4.63861C2.41797 4.31049 2.01953 4.31049 1.62109 4.63861C1.29297 5.03705 1.29297 5.43549 1.62109 5.83392L5.80469 10.0175L1.62109 14.2011C1.29297 14.5995 1.29297 14.998 1.62109 15.3964C2.01953 15.7245 2.41797 15.7245 2.81641 15.3964L7 11.2128L11.1836 15.3964C11.582 15.7245 11.9805 15.7245 12.3789 15.3964C12.707 14.998 12.707 14.5995 12.3789 14.2011L8.19531 10.0175L12.3789 5.83392Z" fill="#160E4B"/>
</svg>
