<svg width="38" height="31" viewBox="0 0 38 31" fill="none" xmlns="http://www.w3.org/2000/svg">
<g clip-path="url(#clip0_2_1195)">
<path d="M4.16642 2.54959C3.62561 2.54959 3.18137 2.72342 2.83371 3.07108C2.48605 3.41875 2.31221 3.86298 2.31221 4.40379V21.0916C2.31221 21.6325 2.48605 22.0767 2.83371 22.4244C3.18137 22.772 3.62561 22.9458 4.16642 22.9458H4.51408C4.90038 21.8642 5.55707 20.9758 6.48418 20.2804C7.41128 19.6237 8.4929 19.2761 9.72904 19.2374C10.9652 19.2761 12.0468 19.6237 12.9739 20.2804C13.901 20.9758 14.577 21.8642 15.0019 22.9458H22.7085V4.40379C22.7085 3.86298 22.5346 3.41875 22.187 3.07108C21.8393 2.72342 21.3951 2.54959 20.8543 2.54959H4.16642ZM4.16642 24.8001C3.12343 24.7614 2.25427 24.3944 1.55894 23.6991C0.863615 23.0038 0.496637 22.1346 0.458008 21.0916V4.40379C0.496637 3.3608 0.863615 2.49164 1.55894 1.79632C2.25427 1.10099 3.12343 0.734011 4.16642 0.695381H20.8543C21.8973 0.734011 22.7664 1.10099 23.4617 1.79632C24.1571 2.49164 24.5241 3.3608 24.5627 4.40379V6.258H28.329C29.1789 6.258 29.8935 6.58635 30.473 7.24304L34.9926 12.5739C35.4561 13.0761 35.6879 13.6748 35.6879 14.3701V22.9458H36.615C37.1945 22.9845 37.5035 23.2935 37.5421 23.873C37.5035 24.4524 37.1945 24.7614 36.615 24.8001H33.8337C33.7951 26.3839 33.2543 27.6973 32.2113 28.7402C31.1683 29.7832 29.8549 30.324 28.2711 30.3627C26.6873 30.324 25.3739 29.7832 24.3309 28.7402C23.2879 27.6973 22.7471 26.3839 22.7085 24.8001H15.2917C15.253 26.3839 14.7122 27.6973 13.6692 28.7402C12.6262 29.7832 11.3128 30.324 9.72904 30.3627C8.14524 30.324 6.83184 29.7832 5.78885 28.7402C4.74586 27.6973 4.20505 26.3839 4.16642 24.8001ZM24.5627 13.6748H33.544L29.0244 8.45987C28.8698 8.22809 28.6381 8.1122 28.329 8.1122H24.5627V13.6748ZM24.5627 15.529V20.6281C25.567 19.7396 26.8032 19.2761 28.2711 19.2374C29.5072 19.2761 30.5889 19.6237 31.516 20.2804C32.4431 20.9758 33.1191 21.8642 33.544 22.9458H33.8337V15.529H24.5627ZM13.4374 24.8001C13.3988 23.4094 12.7808 22.3471 11.5832 21.6131C10.3471 20.9178 9.11097 20.9178 7.87483 21.6131C6.67732 22.3471 6.05925 23.4094 6.02063 24.8001C6.05925 26.1907 6.67732 27.253 7.87483 27.987C9.11097 28.6823 10.3471 28.6823 11.5832 27.987C12.7808 27.253 13.3988 26.1907 13.4374 24.8001ZM28.2711 28.5085C29.6617 28.4698 30.7241 27.8518 31.458 26.6543C32.1533 25.4181 32.1533 24.182 31.458 22.9458C30.7241 21.7483 29.6617 21.1303 28.2711 21.0916C26.8804 21.1303 25.8181 21.7483 25.0842 22.9458C24.3889 24.182 24.3889 25.4181 25.0842 26.6543C25.8181 27.8518 26.8804 28.4698 28.2711 28.5085Z" fill="white"/>
</g>
<defs>
<clipPath id="clip0_2_1195">
<rect width="37.5" height="31" fill="white" transform="matrix(1 0 0 -1 0.25 31)"/>
</clipPath>
</defs>
</svg>
