<svg width="17" height="20" viewBox="0 0 17 20" fill="none" xmlns="http://www.w3.org/2000/svg">
<g clip-path="url(#clip0_1945_400)">
<path d="M6.125 4.9375V6.625H10.625V4.9375C10.6016 4.30469 10.3789 3.77734 9.95703 3.35547C9.53516 2.93359 9.00781 2.71094 8.375 2.6875C7.74219 2.71094 7.21484 2.93359 6.79297 3.35547C6.37109 3.77734 6.14844 4.30469 6.125 4.9375ZM4.4375 8.3125H2.1875V15.625C2.21094 16.0938 2.375 16.4922 2.67969 16.8203C3.00781 17.125 3.40625 17.2891 3.875 17.3125H12.875C13.3438 17.2891 13.7422 17.125 14.0703 16.8203C14.375 16.4922 14.5391 16.0938 14.5625 15.625V8.3125H12.3125V10.2812C12.2656 10.7969 11.9844 11.0781 11.4688 11.125C10.9531 11.0781 10.6719 10.7969 10.625 10.2812V8.3125H6.125V10.2812C6.07812 10.7969 5.79688 11.0781 5.28125 11.125C4.76562 11.0781 4.48438 10.7969 4.4375 10.2812V8.3125ZM4.4375 6.625V4.9375C4.46094 3.8125 4.84766 2.88672 5.59766 2.16016C6.32422 1.41016 7.25 1.02344 8.375 1C9.5 1.02344 10.4258 1.41016 11.1523 2.16016C11.9023 2.88672 12.2891 3.8125 12.3125 4.9375V6.625H14.5625C15.0312 6.64844 15.4297 6.8125 15.7578 7.11719C16.0625 7.44531 16.2266 7.84375 16.25 8.3125V15.625C16.2266 16.5859 15.8984 17.3828 15.2656 18.0156C14.6328 18.6484 13.8359 18.9766 12.875 19H3.875C2.91406 18.9766 2.11719 18.6484 1.48438 18.0156C0.851562 17.3828 0.523438 16.5859 0.5 15.625V8.3125C0.523438 7.84375 0.6875 7.44531 0.992188 7.11719C1.32031 6.8125 1.71875 6.64844 2.1875 6.625H4.4375Z" fill="white"/>
</g>
<defs>
<clipPath id="clip0_1945_400">
<rect width="15.75" height="19" fill="white" transform="matrix(1 0 0 -1 0.5 19.5)"/>
</clipPath>
</defs>
</svg>
