<svg width="40" height="41" viewBox="0 0 40 41" fill="none" xmlns="http://www.w3.org/2000/svg">
<rect y="0.100098" width="40" height="40" rx="20" fill="#F82BA9"/>
<path d="M29.4682 21.6378L21.9256 29.1818C21.4255 29.6817 20.7473 29.9625 20.0402 29.9625C19.3331 29.9625 18.655 29.6817 18.1549 29.1818L10.6122 21.6391C9.98872 21.021 9.49343 20.2859 9.1548 19.4759C8.81617 18.6659 8.64085 17.797 8.63893 16.9191C8.63701 16.0411 8.80851 15.1715 9.1436 14.36C9.47868 13.5485 9.97074 12.8112 10.5915 12.1904C11.2123 11.5696 11.9496 11.0776 12.7611 10.7425C13.5726 10.4074 14.4422 10.2359 15.3202 10.2378C16.1981 10.2397 17.067 10.415 17.877 10.7537C18.687 11.0923 19.4222 11.5876 20.0402 12.2111C21.2957 10.9869 22.9828 10.3067 24.7363 10.3176C26.4897 10.3286 28.1682 11.03 29.4082 12.2698C30.6482 13.5096 31.3498 15.188 31.361 16.9415C31.3723 18.6949 30.6922 20.3822 29.4682 21.6378Z" stroke="white" stroke-width="2" stroke-linecap="round" stroke-linejoin="round"/>
</svg>
